<svg id="Layer_1" data-name="Layer 1" xmlns="http://www.w3.org/2000/svg" viewBox="0 0 368 311.91"><defs><style>.cls-1{fill:#fff;}</style></defs><path class="cls-1" d="M148.66,149.73c-3.51-6.29-4.32-16.62-1.74-23.29,7.79-20.07,9.89-40,5.56-60.94-7.66-37-29.9-60.5-64.56-64.21C67.78-.87,47.2.2,26.87,1.06,16.39,1.5,6.23,4.81,2.53,17c-4,13.1-2.74,24.43,6.75,35.6,5.12,6,8.92,15.23,9,23.06.77,53.89.23,107.8.58,161.7a54,54,0,0,1-.42,7.65q-.09.7-.21,1.38c-.15.85-.33,1.69-.55,2.51-.12.45-.25.9-.4,1.35a21.57,21.57,0,0,1-1.2,3c-.11.24-.23.47-.36.7s-.23.43-.36.65-.27.46-.41.68a22.24,22.24,0,0,1-5.84,6.16l-.07.05c-.21.18-.42.36-.62.55l-.59.56-.56.56c-.37.38-.73.76-1.06,1.14l-.49.58a25,25,0,0,0-2.13,3c-.13.2-.25.41-.36.61A23,23,0,0,0,2,270.87c-.17.39-.33.79-.48,1.19a.3.3,0,0,1,0,.1c-.15.41-.28.82-.41,1.23Q.73,274.68.48,276c0,.15,0,.29-.08.43l-.06.4c-.06.35-.11.7-.15,1.06a.77.77,0,0,1,0,.15c0,.41-.08.83-.11,1.25-.36,5.67.92,11.57,2.84,17.36,3.68,11.06,13.15,15.26,24.69,15.18,22-.14,44,.41,66-.16,24.79-.64,44.41-12.39,55.71-33.82C171.57,235.48,172.56,192.58,148.66,149.73ZM74.28,71.25c.64-3.52,2.61-8.84,5-9.5,3.44-.93,8.81.56,11.67,3,9.26,7.88,9.56,35.88,1.15,44.82-6.91,7.33-14.4,5.89-16.66-3.78-1.52-6.52-1.43-13.42-2-20.15l.64,0C74.07,80.79,73.42,75.88,74.28,71.25Zm.3,166.81c-1.65-8-.42-16.66-.42-25,0-8-1.1-16.14.34-23.84,1-5.44,6-14.79,8.23-14.5,7.19.95,18.07,3.86,20.08,8.95,7.75,19.66,8,40.81-.28,60.46-2.07,5-12.07,8.86-18.42,8.84C80.78,252.92,75.74,243.74,74.58,238.06ZM339,254.39c-16-.37-32,.05-47.94-.2-13.12-.21-14.75-2.73-10-15.26Q318.94,139.36,357,39.87C367.07,13.54,358.85.68,330.58.33S273.83-.29,245.5.58a32.83,32.83,0,0,0-4.19.41c-.5.08-1,.17-1.49.27-1.08.21-2.16.47-3.24.75s-2.12.6-3.19.93h0c-.79.25-1.58.5-2.37.77-2.14.71-4.28,1.47-6.42,2.18l-1.19.39q-1.81.6-3.63,1.11l-.08,0A30.55,30.55,0,0,0,212.8,17c-.09.2-.19.41-.28.62a32.7,32.7,0,0,0-1.22,3.16c-.17.53-.33,1.05-.48,1.59s-.35,1.31-.49,2c0,.18-.08.36-.11.54-.08.36-.15.72-.2,1.09s-.13.79-.18,1.19a31.54,31.54,0,0,0,1.95,16.19C216.63,55,226.36,58,238.12,57.85c12-.2,24-.39,35.91.69,12.48,1.13,14.44,5.35,10.09,16.62q-39,101-77.93,202.1c-8.51,22.2-.39,34.28,23.2,34.45,36.36.26,72.72.17,109.07,0,18.6-.07,29.2-10,29.53-27.09C368.37,265.24,358.66,254.85,339,254.39Z" transform="translate(0 0)"/><path d="M219.66,7.42C228.27,5,236.82.86,245.49.59,273.83-.29,302.22,0,330.58.33S367.07,13.54,357,39.87q-38.12,99.47-75.9,199.06c-4.76,12.53-3.13,15,10,15.26,16,.25,32-.17,47.94.2,19.66.46,29.37,10.85,29,30.26-.33,17.1-10.93,27-29.53,27.09-36.36.14-72.71.23-109.07,0-23.59-.16-31.71-12.25-23.2-34.44Q245,176.14,284.12,75.16c4.35-11.26,2.39-15.49-10.09-16.62-11.89-1.08-23.94-.89-35.91-.69C226.36,58,216.63,55,211.79,43.32c-5-12-1.41-27.38,8-36,0,4,0,8,.12,12,.3,16.44.31,16.42,17,16.4q26.38,0,52.77,0c17.92,0,18.23.8,11.83,17.21Q257.5,165.64,213.76,278.43c-3.31,8.5-1.4,11.42,7.92,11.33,37.17-.36,74.36-.54,111.53-.05,10.72.14,13.73-3.82,13.77-14s-3-14.67-13.69-14.18c-23.53,1.08-47.08,1.51-70.62,2.2-13.57.4-15-1.43-10.24-13.93q42.84-111.87,85.86-223.66c6.32-16.43,6.5-16.16-10.87-16.46C291.5,9.06,255.58,8.19,219.66,7.42Z" transform="translate(0 0)"/><path d="M9.07,261.49c8.29-6,9.88-14.31,9.81-24.13-.35-53.91.2-107.82-.57-161.71-.11-7.83-3.92-17-9-23.06C-.22,41.42-1.45,30.09,2.53,17,6.23,4.81,16.39,1.51,26.87,1.06,47.2.2,67.78-.87,87.92,1.29,122.58,5,144.82,28.48,152.48,65.5c4.33,20.92,2.23,40.87-5.56,61-2.59,6.66-1.77,17,1.73,23.28,23.91,42.85,22.92,85.75.6,128.09C138,299.26,118.33,311,93.54,311.64c-22,.57-44,0-65.95.17-11.54.07-21-4.12-24.69-15.19-4.1-12.33-5.29-25.16,6.23-35.21.79,5.09,2.4,10.21,2.18,15.26-.43,9.89,3.49,13.36,13.4,13.05,19.95-.61,39.93.13,59.89-.34,23.17-.55,41.63-10.44,49.84-32.58,5.6-15.08,9.47-31.49,10.27-47.49,1.38-27.24-2.63-53.62-27.7-71.38-1.55-1.09-2-7.12-.56-8.56,16.42-16.7,18.15-37.39,17.12-59-1.85-39-24.25-60.59-62.86-60.63-16.37,0-32.75-.46-49.11,0-3.69.1-10.6,4.06-10.48,4.42,2.35,7.18-4.75,19.56,7.44,21,11.66,1.36,12.17,7.33,12.15,16q-.18,94.55-.1,189.08C30.61,262.05,30.61,262.05,9.07,261.49Z" transform="translate(0 0)"/><path class="cls-1" d="M219.66,7.42c35.92.77,71.84,1.64,107.76,2.27,17.37.3,17.19,0,10.87,16.46q-43,111.78-85.86,223.66c-4.79,12.5-3.33,14.33,10.24,13.93,23.54-.69,47.09-1.12,70.62-2.2,10.69-.49,13.73,4,13.69,14.18s-3.05,14.13-13.77,14c-37.17-.49-74.36-.31-111.53.05-9.32.09-11.23-2.83-7.92-11.33q44-112.71,87.67-225.52c6.4-16.41,6.09-17.18-11.83-17.21q-26.39,0-52.77,0c-16.65,0-16.66,0-17-16.4-.08-4-.09-8-.12-12Z" transform="translate(0 0)"/><path class="cls-1" d="M9.14,261.43v0l-.07.07h.08A.09.09,0,0,0,9.14,261.43ZM117,137.93c-1.55-1.1-2-7.13-.55-8.56,16.41-16.7,18.15-37.4,17.12-59-1.86-39-24.25-60.59-62.87-60.63-16.37,0-32.75-.46-49.11,0-3.69.1-10.6,4.05-10.48,4.42,2.36,7.18-4.75,19.55,7.44,21,11.66,1.36,12.17,7.33,12.15,16q-.18,94.53-.09,189.08c0,10.29,0,15.74-2.26,18.56a4.62,4.62,0,0,1-.41.46c-2.68,2.69-8,2.56-18.8,2.27.09.57.19,1.15.29,1.72.17.91.36,1.83.54,2.74s.33,1.56.47,2.35a35.74,35.74,0,0,1,.87,8.38c-.44,9.89,3.48,13.36,13.39,13.05,19.95-.61,39.94.13,59.89-.34,23.18-.55,41.63-10.44,49.85-32.58,5.59-15.08,9.46-31.49,10.27-47.5C146.09,182.07,142.08,155.69,117,137.93ZM64.35,35.62C93.89,33.37,109.82,49,109.66,80.56c-.15,29.7-16,44.93-45.54,44.07-7.25-.21-9.9-3.62-9.82-10.44.11-8.13.08-16.26.06-24.4q0-5.16,0-10.33c0-1.08,0-2.17,0-3.26,0-10.09.07-20.19,0-30.28C54.19,39,57.34,36.16,64.35,35.62ZM114.76,237.5c-4.87,17.73-13.87,23.56-32.24,24.18-28.22,1-28.22,1-28.22-28.21V207.16c0-6.52,0-13,0-19.57,0-7,0-13.93-.06-20.9,0-1.66,0-3.32-.07-5-.14-8.14,3.31-11,11.43-11.36,38.68-1.6,54.23,12.79,53.75,51.87A141.55,141.55,0,0,1,114.76,237.5Z" transform="translate(0 0)"/><path d="M65.64,150.35c-8.12.33-11.57,3.22-11.43,11.36,0,1.66,0,3.32.07,5,.08,7,.08,13.94.06,20.9,0,6.52-.05,13-.05,19.57q0,13.16,0,26.31c0,29.17,0,29.17,28.22,28.21,18.37-.62,27.37-6.45,32.24-24.18a141.55,141.55,0,0,0,4.63-35.28C119.87,163.14,104.32,148.75,65.64,150.35Zm36.89,93.75c-2.07,5-12.07,8.86-18.42,8.84-3.33,0-8.37-9.2-9.53-14.88-1.65-8-.42-16.66-.42-25,0-8-1.1-16.14.34-23.84,1-5.44,6-14.79,8.23-14.5,7.19.95,18.07,3.86,20.08,8.95C110.56,203.3,110.76,224.45,102.53,244.1Z" transform="translate(0 0)"/><path d="M64.35,35.62c-7,.54-10.16,3.34-10.07,10.3.12,10.09,0,20.19,0,30.28v3.26c0,3.44,0,6.89,0,10.33,0,8.14,0,16.27-.06,24.4-.08,6.82,2.57,10.23,9.82,10.44,29.51.86,45.39-14.37,45.54-44.07C109.82,49,93.89,33.37,64.35,35.62Zm27.79,73.94c-6.91,7.33-14.4,5.89-16.66-3.78-1.52-6.52-1.43-13.42-2-20.15l.64,0c0-4.79-.65-9.7.21-14.33.64-3.52,2.61-8.84,5-9.5,3.44-.93,8.81.56,11.67,3C100.25,72.62,100.55,100.62,92.14,109.56Z" transform="translate(0 0)"/></svg>