<svg id="Layer_1" data-name="Layer 1" xmlns="http://www.w3.org/2000/svg" viewBox="0 0 879.34 791.98"><defs><style>.cls-1{fill:#fff;}</style></defs><path class="cls-1" d="M1034.54,810.94v.16a39.63,39.63,0,0,1-7.38.47c-39-.15-78.09-.15-117.07-.15H797.59a234.21,234.21,0,0,0-36-69.81c-42.1-56.5-89.21-100.16-143.05-132.71,8.11-6.74,16.43-13.46,24.88-20,8.77-6.73,19.72-12.21,31.15-18.15,4.38-2.22,8.76-4.54,13-6.73,21.13-11.43,38-14.25,56.34-9.7,21.29,5.32,46.64,5.16,71.56-.47,15.64-3.6,29.42-1.57,46.47,6.41,54.94,26,101.58,65.11,142.43,119.73C1030,714.73,1039.08,753.83,1034.54,810.94Z" transform="translate(-156.32 -140.79)"/><path class="cls-1" d="M930.92,295.71c-.63,83-70,150.55-154.78,150.87h-.32a146.83,146.83,0,0,1-95.3-35.05A234.86,234.86,0,0,0,650.32,210a153.13,153.13,0,0,1,19.88-24.25c29.08-29,67.92-44.92,109.55-44.92h.79c39.72.31,77.35,16.59,106,46.16C915.43,216.54,931.09,255.19,930.92,295.71Z" transform="translate(-156.32 -140.79)"/><path class="cls-1" d="M750.33,898c0,9.59-.47,19.72-1.26,30.36a27.7,27.7,0,0,1-.46,3.29c-1.57.47-5,1.41-12.06,1.09q-65.73-.23-131.46-.15H528.24l-169,.15q-92,0-184.21-.15c-8.45,0-12.8-.47-15-.93-.78-2.66-1.88-8-2.82-19.56-9.55-111.13,61.67-176.55,141.64-239,10.2-8,22.68-14.37,36-21.1,5-2.51,9.86-5,14.71-7.68C374.44,631,394.31,627.52,416.22,633c23.48,6,51.64,5.63,79.35-.63a75.52,75.52,0,0,1,17.53-2c10.49,0,21,2.34,32.4,7.2,1.72.93,3.6,1.72,5.32,2.5,7.67,3.6,15,7.37,22.38,11.27,53.34,29.42,99.52,70.74,140.67,125.83a177.76,177.76,0,0,1,20.19,34.28,166.37,166.37,0,0,1,10,29.73,195.21,195.21,0,0,1,5,29.9C749.86,879.65,750.33,888.57,750.33,898Z" transform="translate(-156.32 -140.79)"/><circle class="cls-1" cx="297" cy="200.56" r="176.2"/></svg>